<svg id="Layer_1" data-name="Layer 1" xmlns="http://www.w3.org/2000/svg" xmlns:xlink="http://www.w3.org/1999/xlink" viewBox="0 0 615 208"><defs><style>.cls-1{fill:none;}.cls-2{clip-path:url(#clip-path);}.cls-3{fill:#050606;}.cls-4{fill:#ef2f2f;}.cls-5{fill:#fff;}.cls-6{font-size:39px;font-family:Helvetica-Bold, Helvetica;font-weight:700;}</style><clipPath id="clip-path"><rect class="cls-1" x="-91" y="-363" width="794.66" height="794.66"/></clipPath></defs><title>Artboard 1</title><g class="cls-2"><path class="cls-3" d="M119.35,29.19a8,8,0,0,0,4.47,1.19c2.5,0,4.56-1.28,4.56-4.16,0-4-9.29-4.47-9.29-9.79,0-3.25,2.84-5.28,6.42-5.28a12.15,12.15,0,0,1,4,.66l-.32,1.83a8.3,8.3,0,0,0-3.69-.75c-2.09,0-4.39.86-4.39,3.49,0,4.06,9.3,4.09,9.3,10,0,4.1-3.52,5.72-6.65,5.72a11.55,11.55,0,0,1-4.6-.87l.21-2.06m26.76-10.26a8.55,8.55,0,0,0-3.17-.76c-3.57,0-5.58,2.59-5.58,6.19,0,3.38,2,6.19,5.38,6.19a9.64,9.64,0,0,0,3.34-.66l.17,1.71a10.83,10.83,0,0,1-3.8.52c-4.77,0-7.09-3.63-7.09-7.76,0-4.56,2.93-7.75,7.32-7.75a10.81,10.81,0,0,1,3.57.58l-.14,1.74M151.63,10h1.83v9.47h.06a5,5,0,0,1,4.62-2.84c4,0,5.06,2.64,5.06,6.3v8.87h-1.83V22.94c0-2.56-.5-4.77-3.52-4.77-3.25,0-4.39,3.08-4.39,5.67v7.94h-1.83V10m33.65,21.79h-2.21L179,19H179l-4,12.81h-2.21L168,17h2l3.89,12.82h.06L178,17h2.21l3.93,12.82h0L188.33,17h1.83l-4.88,14.82m18.65-8.45c0-2.59-1-5.15-3.77-5.15s-4.36,2.71-4.36,5.15Zm.91,8a12.25,12.25,0,0,1-4.3.82c-4.92,0-6.74-3.32-6.74-7.77s2.49-7.76,6.24-7.76c4.18,0,5.9,3.38,5.9,7.36v.93H195.8c0,3.13,1.68,5.66,4.88,5.66a9.6,9.6,0,0,0,4.16-1.1v1.86M211.7,17h1.82V31.77H211.7Zm0-6.39h1.82V13H211.7ZM219,30.24,228,18.52H219.4V17h10.68v1.57L221.17,30.2h8.91v1.57H219V30.24m25.57-6.92c0-2.59-1-5.15-3.77-5.15s-4.36,2.71-4.36,5.15Zm.91,8a12.26,12.26,0,0,1-4.31.82c-4.9,0-6.73-3.32-6.73-7.77s2.49-7.76,6.24-7.76c4.19,0,5.9,3.38,5.9,7.36v.93H236.48c0,3.13,1.69,5.66,4.88,5.66a9.6,9.6,0,0,0,4.16-1.1v1.86m6.82-11a28,28,0,0,0-.11-3.31h1.83V19.8h.06c.67-1.65,1.91-3.19,3.81-3.19a5.83,5.83,0,0,1,1.27.17V18.7a4.61,4.61,0,0,0-1.34-.17c-2.9,0-3.68,3.25-3.68,5.92v7.33h-1.84V20.27m12-3.32h1.83V31.77h-1.83Zm0-6.39h1.83V13h-1.83Zm7.58,19.06a8.52,8.52,0,0,0,3.87.93c1.74,0,3.28-1,3.28-2.64,0-3.51-7.12-3-7.12-7.27,0-2.93,2.38-4,4.82-4a11.84,11.84,0,0,1,3.67.67l-.18,1.6a8.78,8.78,0,0,0-3.29-.69c-1.88,0-3.19.58-3.19,2.46,0,2.77,7.29,2.42,7.29,7.27,0,3.14-2.93,4.22-5.17,4.22a11,11,0,0,1-4.15-.71l.17-1.8m24.35-10.69a8.5,8.5,0,0,0-3.16-.76c-3.58,0-5.59,2.59-5.59,6.19,0,3.38,2,6.19,5.38,6.19a9.64,9.64,0,0,0,3.34-.66l.17,1.71a10.8,10.8,0,0,1-3.8.52c-4.76,0-7.09-3.63-7.09-7.76,0-4.56,2.94-7.75,7.32-7.75a10.81,10.81,0,0,1,3.57.58l-.14,1.74M301.74,10h1.83v9.47h.06a5,5,0,0,1,4.62-2.84c4,0,5.06,2.64,5.06,6.3v8.87h-1.83V22.94c0-2.56-.5-4.77-3.52-4.77-3.25,0-4.39,3.08-4.39,5.67v7.94h-1.83V10m27.43,13.34c0-2.59-1.05-5.15-3.78-5.15S321,20.88,321,23.32Zm.9,8a12.16,12.16,0,0,1-4.3.82c-4.91,0-6.74-3.32-6.74-7.77s2.5-7.76,6.25-7.76c4.18,0,5.9,3.38,5.9,7.36v.93H321c0,3.13,1.69,5.66,4.89,5.66a9.56,9.56,0,0,0,4.15-1.1v1.86m17.38-19.82h9.94v1.75h-7.93v7.23H357v1.74h-7.52V30h8.28v1.74H347.45V11.49M364,17h1.83V31.77H364Zm0-6.39h1.83V13H364Zm14.24,20c3.26,0,4.39-3.48,4.39-6.19s-1.13-6.19-4.39-6.19c-3.49,0-4.39,3.32-4.39,6.19s.9,6.19,4.39,6.19m6.22,1.23h-1.83V29.42h-.06a4.75,4.75,0,0,1-4.62,2.7c-4.07,0-6.1-3.37-6.1-7.76s1.74-7.75,6.1-7.75a5,5,0,0,1,4.62,2.84h.06V10h1.83v21.8m12.09-1.58c3.31,0,4.5-3.13,4.5-5.84,0-3.57-1-6.19-4.39-6.19s-4.38,3.32-4.38,6.19,1.16,5.84,4.27,5.84m6.33.35c0,4.13-1.86,7.5-6.94,7.5a15.46,15.46,0,0,1-4.48-.78l.14-1.83a10,10,0,0,0,4.37,1c4.71,0,5.11-3.43,5.11-7.61H401a4.59,4.59,0,0,1-4.5,2.91c-4.74,0-6.25-4.14-6.25-7.42,0-4.5,1.75-7.76,6.1-7.76,2,0,3.26.26,4.62,2h.06V17h1.83v13.6m15.72-7.23c0-2.59-1-5.15-3.78-5.15s-4.36,2.71-4.36,5.15Zm.9,8a12.16,12.16,0,0,1-4.3.82c-4.91,0-6.74-3.32-6.74-7.77s2.5-7.76,6.25-7.76c4.18,0,5.9,3.38,5.9,7.36v.93H410.47c0,3.13,1.69,5.66,4.89,5.66a9.56,9.56,0,0,0,4.15-1.1v1.86m6.86-10.87a34.6,34.6,0,0,0-.12-3.49H428V19.6h.06a4.68,4.68,0,0,1,4.79-3c3.66,0,5.05,2.44,5.05,5.69v9.48h-1.82v-9c0-2.79-1-4.6-3.52-4.6-3.34,0-4.39,2.94-4.39,5.41v8.2h-1.83V20.44m24.18,10.11c3.19,0,4.91-2.76,4.91-6.19s-1.72-6.19-4.91-6.19-4.91,2.77-4.91,6.19,1.71,6.19,4.91,6.19m0-13.94c4.79,0,6.92,3.71,6.92,7.75s-2.13,7.76-6.92,7.76-6.91-3.71-6.91-7.76,2.11-7.75,6.91-7.75m11.5,13a8.56,8.56,0,0,0,3.87.93c1.74,0,3.28-1,3.28-2.64,0-3.51-7.12-3-7.12-7.27,0-2.93,2.39-4,4.83-4a11.83,11.83,0,0,1,3.66.67l-.18,1.6a8.77,8.77,0,0,0-3.28-.69c-1.89,0-3.2.58-3.2,2.46,0,2.77,7.29,2.42,7.29,7.27,0,3.14-2.93,4.22-5.17,4.22a11,11,0,0,1-4.15-.71l.17-1.8m13.57,0a8.65,8.65,0,0,0,3.87.93c1.74,0,3.28-1,3.28-2.64,0-3.51-7.12-3-7.12-7.27,0-2.93,2.38-4,4.82-4a11.84,11.84,0,0,1,3.67.67l-.18,1.6a8.74,8.74,0,0,0-3.29-.69c-1.88,0-3.19.58-3.19,2.46,0,2.77,7.29,2.42,7.29,7.27,0,3.14-2.93,4.22-5.16,4.22a11,11,0,0,1-4.16-.71l.17-1.8m23.74-6.3c0-2.59-1-5.15-3.77-5.15s-4.36,2.71-4.36,5.15Zm.9,8a12.15,12.15,0,0,1-4.29.82c-4.91,0-6.75-3.32-6.75-7.77s2.5-7.76,6.25-7.76c4.19,0,5.9,3.38,5.9,7.36v.93H491.23c0,3.13,1.69,5.66,4.88,5.66a9.52,9.52,0,0,0,4.15-1.1v1.86m6.86-10.87c0-1.13,0-2.29-.11-3.49h1.77V19.6h.06a4.69,4.69,0,0,1,4.79-3c3.67,0,5.06,2.44,5.06,5.69v9.48h-1.83v-9c0-2.79-1-4.6-3.52-4.6-3.34,0-4.39,2.94-4.39,5.41v8.2h-1.83V20.44m17.29,9.18a8.51,8.51,0,0,0,3.86.93c1.75,0,3.29-1,3.29-2.64,0-3.51-7.12-3-7.12-7.27,0-2.93,2.38-4,4.82-4a11.74,11.74,0,0,1,3.66.67l-.17,1.6a8.73,8.73,0,0,0-3.28-.69c-1.9,0-3.2.58-3.2,2.46,0,2.77,7.3,2.42,7.3,7.27,0,3.14-2.94,4.22-5.18,4.22a11,11,0,0,1-4.15-.71l.17-1.8m24.35-10.69a8.55,8.55,0,0,0-3.17-.76c-3.57,0-5.58,2.59-5.58,6.19,0,3.38,2,6.19,5.38,6.19a9.64,9.64,0,0,0,3.34-.66l.18,1.71a11,11,0,0,1-3.81.52c-4.77,0-7.09-3.63-7.09-7.76,0-4.56,2.93-7.75,7.32-7.75a10.87,10.87,0,0,1,3.58.58l-.15,1.74M554.28,10h1.84v9.47h0a5,5,0,0,1,4.62-2.84c4,0,5.06,2.64,5.06,6.3v8.87H564V22.94c0-2.56-.49-4.77-3.52-4.77-3.25,0-4.38,3.08-4.38,5.67v7.94h-1.84V10m26.77,14.33h-.53c-3.16,0-6.94.32-6.94,3.57,0,1.95,1.39,2.67,3.08,2.67,4.3,0,4.39-3.75,4.39-5.34Zm.16,5.08h-.05a5.21,5.21,0,0,1-4.7,2.74c-4.21,0-4.89-2.85-4.89-4.19,0-5,5.29-5.2,9.13-5.2h.35V22c0-2.52-.9-3.81-3.38-3.81a7.9,7.9,0,0,0-4.36,1.22V17.63a11.6,11.6,0,0,1,4.36-1c3.67,0,5.21,1.65,5.21,5.52v6.53a20.52,20.52,0,0,0,.15,3.12h-1.82V29.39m9.55-10.87h-3V17h3V15.88c0-3.11.1-6.25,3.92-6.25a4.34,4.34,0,0,1,1.71.29l-.11,1.6a3.37,3.37,0,0,0-1.46-.32c-2.5,0-2.24,2.7-2.24,4.48V17h3.34v1.56h-3.34V31.78h-1.82V18.52m17,0h-3.38v9.59c0,1.34.5,2.44,2,2.44a4.25,4.25,0,0,0,1.68-.34l.12,1.51a6.51,6.51,0,0,1-2.23.4c-3.26,0-3.38-2.23-3.38-4.94V18.52h-2.9V17h2.9V13.38l1.83-.64V17h3.38v1.56m-474,35.34a10.64,10.64,0,0,0-4.53-.87c-5.27,0-8.23,3.72-8.23,8.75s2.88,8.74,8.23,8.74a10,10,0,0,0,4.53-.87l.12,1.74a11,11,0,0,1-4.65.88c-6.4,0-10.23-4.21-10.23-10.49s4-10.49,10.23-10.49a13.19,13.19,0,0,1,4.65.75l-.12,1.86m13.31,16.79c3.19,0,4.91-2.75,4.91-6.18s-1.72-6.19-4.91-6.19-4.91,2.76-4.91,6.19,1.72,6.18,4.91,6.18m0-13.94c4.79,0,6.92,3.72,6.92,7.76s-2.13,7.75-6.92,7.75-6.91-3.71-6.91-7.75,2.11-7.76,6.91-7.76m12.64,3.84a34.5,34.5,0,0,0-.12-3.49h1.77V59.7h.06a4.7,4.7,0,0,1,4.8-3c3.66,0,5.05,2.44,5.05,5.7v9.47H169.5v-9c0-2.79-1-4.59-3.52-4.59-3.34,0-4.38,2.93-4.38,5.4v8.2h-1.83V60.55m19.64-1.92h-3V57.06h3V56c0-3.12.12-6.26,3.92-6.26a4.11,4.11,0,0,1,1.72.3l-.12,1.59a3.29,3.29,0,0,0-1.45-.31c-2.5,0-2.24,2.69-2.24,4.47v1.28h3.34v1.57h-3.34V71.88h-1.83V58.63m16.65-7.3h2.3l-3.67,4.19h-1.33Zm3.05,12.09c0-2.58-1.05-5.14-3.78-5.14S191,61,191,63.42Zm.9,8a12,12,0,0,1-4.3.82c-4.91,0-6.74-3.32-6.74-7.76s2.5-7.76,6.25-7.76c4.18,0,5.89,3.37,5.89,7.35V65H191c0,3.14,1.69,5.67,4.89,5.67A9.42,9.42,0,0,0,200,69.55v1.86m12.35-.76c3.26,0,4.39-3.48,4.39-6.18s-1.13-6.19-4.39-6.19c-3.49,0-4.39,3.31-4.39,6.19s.9,6.18,4.39,6.18m6.22,1.23h-1.83V69.53h-.06a4.75,4.75,0,0,1-4.62,2.69c-4.07,0-6.1-3.37-6.1-7.75s1.74-7.76,6.1-7.76a5,5,0,0,1,4.62,2.85h.06V50.08h1.83v21.8m12.67-20.55h2.29l-3.66,4.19h-1.33Zm3.05,12.09c0-2.58-1.05-5.14-3.78-5.14s-4.36,2.7-4.36,5.14Zm.9,8a12,12,0,0,1-4.3.82c-4.91,0-6.74-3.32-6.74-7.76s2.5-7.76,6.25-7.76c4.18,0,5.9,3.37,5.9,7.35V65H226.16c0,3.14,1.69,5.67,4.88,5.67a9.43,9.43,0,0,0,4.16-1.11v1.86m6.86-11a25.7,25.7,0,0,0-.12-3.31h1.84v2.85h.05c.67-1.66,1.92-3.2,3.81-3.2a5.92,5.92,0,0,1,1.28.17V58.8a5.08,5.08,0,0,0-1.34-.17c-2.91,0-3.69,3.25-3.69,5.92v7.33h-1.83V60.37m20.25,4h-.52c-3.17,0-7,.32-7,3.58,0,1.94,1.4,2.66,3.08,2.66,4.3,0,4.39-3.75,4.39-5.34Zm.18,5.08h-.06a5.22,5.22,0,0,1-4.71,2.74c-4.21,0-4.88-2.85-4.88-4.19,0-5,5.29-5.2,9.12-5.2h.35v-.76c0-2.52-.9-3.8-3.37-3.8a8,8,0,0,0-4.36,1.21V57.73a11.6,11.6,0,0,1,4.36-1c3.66,0,5.2,1.65,5.2,5.52v6.54a21.9,21.9,0,0,0,.14,3.11h-1.79V69.49m14.67-10.86h-3.37v9.58c0,1.34.49,2.44,2,2.44a4.12,4.12,0,0,0,1.68-.34l.12,1.51a6.83,6.83,0,0,1-2.24.41c-3.25,0-3.37-2.24-3.37-4.94V58.63h-2.91V57.06H272V53.48l1.83-.63v4.21h3.37v1.57m5.55-1.57h1.83V71.88h-1.83Zm0-6.4h1.83V53.1h-1.83Zm14.5,20c3.19,0,4.91-2.75,4.91-6.18s-1.72-6.19-4.91-6.19S292.3,61,292.3,64.47s1.71,6.18,4.91,6.18m0-13.94c4.79,0,6.92,3.72,6.92,7.76s-2.13,7.75-6.92,7.75-6.91-3.71-6.91-7.75,2.11-7.76,6.91-7.76m12.61,3.84c0-1.14,0-2.29-.11-3.49h1.77V59.7h.06a4.68,4.68,0,0,1,4.79-3c3.66,0,5.06,2.44,5.06,5.7v9.47h-1.83v-9c0-2.79-1-4.59-3.52-4.59-3.34,0-4.39,2.93-4.39,5.4v8.2h-1.83V60.55m27.61,9.17a8.51,8.51,0,0,0,3.86.93c1.75,0,3.29-1,3.29-2.63,0-3.52-7.12-3-7.12-7.27,0-2.94,2.38-4,4.82-4a11.5,11.5,0,0,1,3.66.67l-.17,1.6a8.6,8.6,0,0,0-3.29-.7c-1.89,0-3.19.58-3.19,2.47,0,2.76,7.29,2.41,7.29,7.27,0,3.13-2.94,4.21-5.17,4.21a11.23,11.23,0,0,1-4.16-.7l.18-1.81m26.26-1.33a34.6,34.6,0,0,0,.12,3.49H362V69.23H362a4.69,4.69,0,0,1-4.79,3c-3.66,0-5.06-2.44-5.06-5.7V57.06H354v9c0,2.79,1,4.58,3.51,4.58,3.35,0,4.39-2.92,4.39-5.4V57.06h1.83V68.39m6.86-11.33h1.83V71.88h-1.83Zm0-6.4h1.83V53.1h-1.83Zm7.58,19.06a8.56,8.56,0,0,0,3.87.93c1.74,0,3.28-1,3.28-2.63,0-3.52-7.11-3-7.11-7.27,0-2.94,2.38-4,4.82-4a11.54,11.54,0,0,1,3.66.67l-.18,1.6a8.51,8.51,0,0,0-3.28-.7c-1.89,0-3.2.58-3.2,2.47,0,2.76,7.3,2.41,7.3,7.27,0,3.13-2.93,4.21-5.18,4.21a11.22,11.22,0,0,1-4.15-.7l.17-1.81m13.58,0a8.51,8.51,0,0,0,3.86.93c1.74,0,3.29-1,3.29-2.63,0-3.52-7.12-3-7.12-7.27,0-2.94,2.38-4,4.82-4a11.44,11.44,0,0,1,3.65.67L400,59a8.51,8.51,0,0,0-3.28-.7c-1.89,0-3.19.58-3.19,2.47,0,2.76,7.29,2.41,7.29,7.27,0,3.13-2.94,4.21-5.17,4.21a11.23,11.23,0,0,1-4.16-.7l.18-1.81m23.73-6.3c0-2.58-1-5.14-3.77-5.14s-4.36,2.7-4.36,5.14Zm.91,8a12,12,0,0,1-4.31.82c-4.91,0-6.73-3.32-6.73-7.76s2.49-7.76,6.24-7.76c4.19,0,5.9,3.37,5.9,7.35V65H407.31c0,3.14,1.68,5.66,4.88,5.66a9.6,9.6,0,0,0,4.16-1.1v1.86M133.82,94a10.64,10.64,0,0,0-4.53-.87c-5.27,0-8.23,3.72-8.23,8.75s2.88,8.74,8.23,8.74a10,10,0,0,0,4.53-.87l.12,1.75a11.13,11.13,0,0,1-4.65.87c-6.4,0-10.23-4.21-10.23-10.49s4-10.49,10.23-10.49a13.19,13.19,0,0,1,4.65.75L133.82,94m13.31,16.8c3.19,0,4.91-2.77,4.91-6.19s-1.72-6.19-4.91-6.19-4.91,2.77-4.91,6.19,1.72,6.19,4.91,6.19m0-14c4.79,0,6.92,3.72,6.92,7.76s-2.13,7.76-6.92,7.76-6.91-3.73-6.91-7.76,2.11-7.76,6.91-7.76m12.64,3.84a34.4,34.4,0,0,0-.12-3.49h1.77V99.8h.06a4.71,4.71,0,0,1,4.8-3c3.66,0,5.05,2.44,5.05,5.7V112H169.5v-9c0-2.78-1-4.59-3.52-4.59-3.34,0-4.38,2.93-4.38,5.4V112h-1.83V100.65m19.64-1.92h-3V97.16h3V96.08c0-3.1.12-6.24,3.92-6.24a4.29,4.29,0,0,1,1.72.29l-.12,1.6a3.16,3.16,0,0,0-1.45-.32c-2.5,0-2.24,2.7-2.24,4.47v1.28h3.34v1.57h-3.34V112h-1.83V98.73m19.7,4.79c0-2.58-1.05-5.14-3.78-5.14s-4.36,2.7-4.36,5.14Zm.9,8a12.38,12.38,0,0,1-4.3.81c-4.91,0-6.74-3.31-6.74-7.76s2.5-7.76,6.25-7.76c4.18,0,5.9,3.38,5.9,7.35v.94H191c0,3.13,1.69,5.66,4.89,5.66a9.7,9.7,0,0,0,4.15-1.1v1.86m12.35-.76c3.26,0,4.39-3.49,4.39-6.19s-1.13-6.19-4.39-6.19c-3.49,0-4.39,3.32-4.39,6.19s.9,6.19,4.39,6.19m6.22,1.22h-1.83v-2.35h-.06a4.76,4.76,0,0,1-4.62,2.7c-4.07,0-6.1-3.37-6.1-7.76s1.74-7.76,6.1-7.76a5,5,0,0,1,4.62,2.85h.06V90.18h1.83V112m15.72-8.46c0-2.58-1.05-5.14-3.78-5.14s-4.36,2.7-4.36,5.14Zm.9,8a12.42,12.42,0,0,1-4.3.81c-4.91,0-6.74-3.31-6.74-7.76s2.5-7.76,6.25-7.76c4.18,0,5.9,3.38,5.9,7.35v.94H226.16c0,3.13,1.69,5.66,4.88,5.66a9.7,9.7,0,0,0,4.16-1.1v1.86m6.86-11a25.7,25.7,0,0,0-.12-3.31h1.84V100h.05c.67-1.65,1.92-3.19,3.81-3.19a5.34,5.34,0,0,1,1.28.18V98.9a5.53,5.53,0,0,0-1.34-.17c-2.91,0-3.69,3.26-3.69,5.93V112h-1.83V100.47m20.25,4h-.52c-3.17,0-7,.32-7,3.58,0,1.94,1.4,2.67,3.08,2.67,4.3,0,4.39-3.75,4.39-5.35Zm.18,5.09h-.06a5.23,5.23,0,0,1-4.71,2.73c-4.21,0-4.88-2.85-4.88-4.19,0-5,5.29-5.2,9.12-5.2h.35v-.75c0-2.53-.9-3.81-3.37-3.81a7.9,7.9,0,0,0-4.36,1.22V97.83a11.79,11.79,0,0,1,4.36-1c3.66,0,5.2,1.66,5.2,5.52v6.53a22,22,0,0,0,.14,3.12h-1.79V109.6m6.91.84,8.92-11.71h-8.57V97.16h10.69v1.57l-8.92,11.68h8.92V112h-11v-1.54m16.53-13.28h1.84V112h-1.84Zm0-6.39h1.84v2.44h-1.84Zm14.5,20c3.2,0,4.92-2.77,4.92-6.19s-1.72-6.19-4.92-6.19-4.9,2.77-4.9,6.19,1.71,6.19,4.9,6.19m0-14c4.8,0,6.92,3.72,6.92,7.76s-2.12,7.76-6.92,7.76-6.91-3.73-6.91-7.76,2.12-7.76,6.91-7.76m12.65,3.84a34.4,34.4,0,0,0-.12-3.49h1.77V99.8h.06a4.71,4.71,0,0,1,4.79-3c3.66,0,5.06,2.44,5.06,5.7V112h-1.83v-9c0-2.78-1-4.59-3.52-4.59-3.34,0-4.38,2.93-4.38,5.4V112h-1.83V100.65m27.42,2.87c0-2.58-1-5.14-3.78-5.14s-4.35,2.7-4.35,5.14Zm.91,8a12.48,12.48,0,0,1-4.31.81c-4.91,0-6.73-3.31-6.73-7.76s2.49-7.76,6.24-7.76c4.19,0,5.9,3.38,5.9,7.35v.94H332.37c0,3.13,1.69,5.66,4.88,5.66a9.74,9.74,0,0,0,4.16-1.1v1.86m16.82-2.13a8.07,8.07,0,0,0,4.48,1.2c2.5,0,4.56-1.29,4.56-4.17,0-4-9.3-4.46-9.3-9.78,0-3.26,2.85-5.29,6.42-5.29a12,12,0,0,1,4,.67l-.33,1.83a8.16,8.16,0,0,0-3.69-.76c-2.09,0-4.38.87-4.38,3.49,0,4.06,9.29,4.09,9.29,10,0,4.1-3.52,5.73-6.65,5.73a11.67,11.67,0,0,1-4.59-.87l.2-2.07M380.52,112h-2.16l-5-14.82h2l4.1,12.82h.05l4.3-12.82h1.92L380.52,112m10-14.82h1.83V112h-1.83Zm0-6.39h1.83v2.44h-1.83Zm7.35,19.67,8.92-11.71h-8.56V97.16h10.69v1.57L400,110.41h8.92V112H397.89v-1.54m15.17,0L422,98.73h-8.57V97.16H424.1v1.57l-8.92,11.68h8.92V112h-11v-1.54m25.57-6.92c0-2.58-1-5.14-3.77-5.14s-4.36,2.7-4.36,5.14Zm.9,8a12.38,12.38,0,0,1-4.3.81c-4.91,0-6.74-3.31-6.74-7.76s2.5-7.76,6.25-7.76c4.18,0,5.9,3.38,5.9,7.35v.94H430.5c0,3.13,1.68,5.66,4.88,5.66a9.7,9.7,0,0,0,4.15-1.1v1.86m6.86-11a28,28,0,0,0-.11-3.31h1.83V100h.05c.67-1.65,1.92-3.19,3.81-3.19a5.26,5.26,0,0,1,1.28.18V98.9a5.47,5.47,0,0,0-1.34-.17c-2.9,0-3.69,3.26-3.69,5.93V112h-1.83V100.47m20.26,4h-.53c-3.17,0-6.94.32-6.94,3.58,0,1.94,1.39,2.67,3.07,2.67,4.3,0,4.4-3.75,4.4-5.35Zm.17,5.09h-.06a5.22,5.22,0,0,1-4.71,2.73c-4.21,0-4.88-2.85-4.88-4.19,0-5,5.29-5.2,9.12-5.2h.36v-.75c0-2.53-.9-3.81-3.37-3.81a7.85,7.85,0,0,0-4.36,1.22V97.83a11.7,11.7,0,0,1,4.36-1c3.66,0,5.19,1.66,5.19,5.52v6.53a20.52,20.52,0,0,0,.15,3.12h-1.8V109.6m-333,24.46a10.64,10.64,0,0,0-4.53-.87c-5.27,0-8.23,3.72-8.23,8.75s2.88,8.75,8.23,8.75a10.13,10.13,0,0,0,4.53-.87l.12,1.73a10.83,10.83,0,0,1-4.65.88c-6.4,0-10.23-4.21-10.23-10.49s4-10.49,10.23-10.49a13,13,0,0,1,4.65.76l-.12,1.85m13.31,16.8c3.19,0,4.91-2.76,4.91-6.19s-1.72-6.19-4.91-6.19-4.91,2.76-4.91,6.19,1.72,6.19,4.91,6.19m0-14c4.79,0,6.92,3.72,6.92,7.76s-2.13,7.76-6.92,7.76-6.91-3.72-6.91-7.76,2.11-7.76,6.91-7.76m12.64,3.84a34.31,34.31,0,0,0-.12-3.48h1.77v2.64h.06a4.71,4.71,0,0,1,4.8-3c3.66,0,5.05,2.45,5.05,5.7v9.47H169.5v-9c0-2.78-1-4.59-3.52-4.59-3.34,0-4.38,2.94-4.38,5.4v8.2h-1.83V140.75m19.64-1.92h-3v-1.56h3v-1.08c0-3.12.12-6.25,3.92-6.25a4.29,4.29,0,0,1,1.72.29l-.12,1.6a3.16,3.16,0,0,0-1.45-.32c-2.5,0-2.24,2.7-2.24,4.47v1.29h3.34v1.56h-3.34v13.25h-1.83V138.83m19.7,4.79c0-2.58-1.05-5.14-3.78-5.14s-4.36,2.7-4.36,5.14Zm.9,8a11.94,11.94,0,0,1-4.3.82c-4.91,0-6.74-3.32-6.74-7.76s2.5-7.76,6.25-7.76c4.18,0,5.9,3.38,5.9,7.35v.94H191c0,3.13,1.69,5.66,4.89,5.66a9.7,9.7,0,0,0,4.15-1.1v1.85m12.35-.75c3.26,0,4.39-3.48,4.39-6.19s-1.13-6.19-4.39-6.19c-3.49,0-4.39,3.31-4.39,6.19s.9,6.19,4.39,6.19m6.22,1.22h-1.83v-2.35h-.06a4.76,4.76,0,0,1-4.62,2.7c-4.07,0-6.1-3.37-6.1-7.76s1.74-7.76,6.1-7.76a5,5,0,0,1,4.62,2.85h.06v-9.47h1.83v21.79m15.72-8.46c0-2.58-1.05-5.14-3.78-5.14s-4.36,2.7-4.36,5.14Zm.9,8a12,12,0,0,1-4.3.82c-4.91,0-6.74-3.32-6.74-7.76s2.5-7.76,6.25-7.76c4.18,0,5.9,3.38,5.9,7.35v.94H226.16c0,3.13,1.69,5.66,4.88,5.66a9.7,9.7,0,0,0,4.16-1.1v1.85m6.86-11a25.53,25.53,0,0,0-.12-3.3h1.84v2.84h.05c.67-1.66,1.92-3.2,3.81-3.2a5.34,5.34,0,0,1,1.28.18V139a5.53,5.53,0,0,0-1.34-.17c-2.91,0-3.69,3.25-3.69,5.93v7.32h-1.83V140.57m20.25,4h-.52c-3.17,0-7,.33-7,3.58,0,1.95,1.4,2.67,3.08,2.67,4.3,0,4.39-3.75,4.39-5.35Zm.18,5.09h-.06a5.23,5.23,0,0,1-4.71,2.73c-4.21,0-4.88-2.85-4.88-4.18,0-5,5.29-5.21,9.12-5.21h.35v-.75c0-2.53-.9-3.81-3.37-3.81a7.9,7.9,0,0,0-4.36,1.22v-1.77a11.79,11.79,0,0,1,4.36-1c3.66,0,5.2,1.66,5.2,5.52V149a21.9,21.9,0,0,0,.14,3.11h-1.79V149.7m6.91.84,8.92-11.7h-8.57v-1.58h10.69v1.58l-8.92,11.67h8.92v1.57h-11v-1.54m16.53-13.28h1.84v14.82h-1.84Zm0-6.39h1.84v2.44h-1.84Zm20.29,17.72c0,1.14,0,2.29.11,3.49h-1.77v-2.65h-.06a4.68,4.68,0,0,1-4.79,3c-3.67,0-5.06-2.44-5.06-5.7v-9.47h1.84v9c0,2.79,1,4.59,3.51,4.59,3.34,0,4.39-2.93,4.39-5.4v-8.2h1.83v11.33m6.86-7.84a34.31,34.31,0,0,0-.12-3.48h1.77v2.64h.06a4.7,4.7,0,0,1,4.79-3c3.66,0,5.06,2.45,5.06,5.7v9.47h-1.83v-9c0-2.78-1-4.59-3.52-4.59-3.34,0-4.38,2.94-4.38,5.4v8.2h-1.83V140.75m27.6,9.18a8.52,8.52,0,0,0,3.87.93c1.74,0,3.28-1,3.28-2.64,0-3.52-7.12-3-7.12-7.27,0-2.93,2.38-4,4.83-4a11.5,11.5,0,0,1,3.65.68l-.17,1.59a8.59,8.59,0,0,0-3.28-.7c-1.89,0-3.2.58-3.2,2.47,0,2.76,7.29,2.41,7.29,7.27,0,3.13-2.93,4.21-5.17,4.21a11.18,11.18,0,0,1-4.15-.7l.17-1.8m19.85,2.15h-2.15l-5-14.82h2l4.09,12.82h.06l4.3-12.82h1.92l-5.2,14.82m10-14.82h1.83v14.82h-1.83Zm0-6.39h1.83v2.44h-1.83Zm7.35,19.67,8.92-11.7h-8.57v-1.58h10.69v1.58L380,150.51h8.91v1.57h-11v-1.54m16.53-10a27.83,27.83,0,0,0-.11-3.3h1.83v2.84h.06c.67-1.66,1.92-3.2,3.81-3.2a5.25,5.25,0,0,1,1.27.18V139a5,5,0,0,0-1.33-.17c-2.91,0-3.69,3.25-3.69,5.93v7.32h-1.84V140.57m20.26,4h-.52c-3.17,0-6.95.33-6.95,3.58,0,1.95,1.4,2.67,3.08,2.67,4.3,0,4.39-3.75,4.39-5.35Zm.17,5.09h-.06a5.2,5.2,0,0,1-4.7,2.73c-4.21,0-4.88-2.85-4.88-4.18,0-5,5.29-5.21,9.12-5.21h.35v-.75c0-2.53-.9-3.81-3.37-3.81A7.87,7.87,0,0,0,407,139.7v-1.77a11.7,11.7,0,0,1,4.36-1c3.66,0,5.2,1.66,5.2,5.52V149a21.9,21.9,0,0,0,.14,3.11h-1.8V149.7"/><path class="cls-4" d="M85.84,10.6S70.47,3.87,44.75,3.87h0C19,3.87,3.63,10.6,3.63,10.6S2.26,40.4,8.1,57.26C18.39,86.88,44.74,95.21,44.74,95.21h0s26.32-8.33,36.64-37.95C87.22,40.4,85.84,10.6,85.84,10.6"/><path class="cls-5" d="M72.06,36.3V52.72H52.9V71.87H36.48V52.72H17.32V36.3H36.48V17.13H52.9V36.3H72.06"/><text class="cls-6" transform="translate(116.17 201.52)">armasuisse</text></g></svg>