<?xml version="1.0" encoding="UTF-8" standalone="no"?>
<svg
   xmlns:dc="http://purl.org/dc/elements/1.1/"
   xmlns:cc="http://creativecommons.org/ns#"
   xmlns:rdf="http://www.w3.org/1999/02/22-rdf-syntax-ns#"
   xmlns:svg="http://www.w3.org/2000/svg"
   xmlns="http://www.w3.org/2000/svg"
   id="svg2273"
   version="1.1"
   viewBox="0 0 329.05209 48.85421"
   height="48.85421mm"
   width="329.05209mm">
  <defs
     id="defs2267">
    <clipPath
       id="clip1">
      <path
         d="m 598,249 h 42.46875 v 65 H 598 Z m 0,0"
         id="path2275" />
    </clipPath>
  </defs>
  <metadata
     id="metadata2270">
    <rdf:RDF>
      <cc:Work
         rdf:about="">
        <dc:format>image/svg+xml</dc:format>
        <dc:type
           rdf:resource="http://purl.org/dc/dcmitype/StillImage" />
        <dc:title></dc:title>
      </cc:Work>
    </rdf:RDF>
  </metadata>
  <g
     transform="translate(212.34328,-306.86656)"
     id="layer1">
    <g
       transform="matrix(0.35277778,0,0,0.35277778,-222.25,237.27976)"
       id="surface102847">
      <path
         style="fill:#141414;fill-opacity:1;fill-rule:nonzero;stroke:none"
         d="m 221.77344,232.99219 h -44.99219 v 27.12109 h 38.28906 v 12.44531 h -38.28906 v 27.76172 h 44.99219 v 12.44531 h -59.03516 v -92.53906 h 59.03516 z m -115.19531,62.22265 c 3.1914,3.51172 8.29687,5.42578 13.72265,5.42578 10.21094,0 16.59375,-6.38281 18.82422,-15.95703 h 14.04297 c -3.19141,18.50782 -16.27344,28.40235 -32.86719,28.40235 -9.57422,0 -17.87109,-3.51172 -24.253905,-9.89453 -8.933594,-8.9336 -8.933594,-19.46485 -8.933594,-37.01563 0,-17.54687 0,-28.07812 8.933594,-37.01172 6.382815,-6.38281 14.679685,-9.89453 24.253905,-9.89453 16.91016,0 29.67578,9.89453 32.86719,28.39844 h -14.35938 c -2.23437,-9.25391 -8.29687,-15.95313 -18.82812,-15.95313 -5.42578,0 -10.53125,2.23438 -13.72266,5.42578 -4.46484,4.78516 -5.42187,10.21094 -5.42187,28.71875 0.3164,19.14454 1.27344,24.57032 5.74219,29.35547 M 75.308594,312.76562 H 61.265625 V 220.22656 H 75.308594 Z M 249.85156,197.25391 H 33.1875 c -2.875,0 -5.105469,2.23046 -5.105469,5.10546 v 128.27735 c 0,2.87109 2.230469,5.10156 5.105469,5.10156 h 216.66406 c 2.875,0 5.10547,-2.23047 5.10547,-5.10156 V 202.35937 c 0.32031,-2.875 -2.23047,-5.10546 -5.10547,-5.10546"
         id="path2282" />
      <path
         style="fill:#141414;fill-opacity:1;fill-rule:nonzero;stroke:none"
         d="m 334.26953,304.46875 -6.25,-6 c -4.73437,5.23437 -8.4375,7.14062 -14.4375,7.14062 -6.125,0 -11.21875,-2.42187 -14.54687,-7.14062 -2.9375,-4.09375 -4.07813,-8.9375 -4.07813,-16.85938 0,-7.90625 1.14063,-12.75 4.07813,-16.84375 3.32812,-4.71875 8.42187,-7.14062 14.54687,-7.14062 6,0 9.70313,1.78125 14.4375,7.01562 l 6.25,-5.875 c -6.51562,-7.01562 -12,-9.3125 -20.6875,-9.3125 -15.8125,0 -27.8125,10.71875 -27.8125,32.15625 0,21.45313 12,32.17188 27.8125,32.17188 8.6875,0 14.17188,-2.29688 20.6875,-9.3125 z m 0,0"
         id="path2284" />
      <path
         style="fill:#141414;fill-opacity:1;fill-rule:nonzero;stroke:none"
         d="m 397.96094,284.04687 v -4.21875 c 0,-18.64062 -9.57813,-30.375 -25.78125,-30.375 -15.95313,0 -25.78125,11.875 -25.78125,32.15625 0,22.21875 10.84375,32.17188 27.4375,32.17188 10.71875,0 16.59375,-3.3125 22.96875,-9.70313 l -6.25,-5.48437 c -4.96875,4.96875 -9.1875,7.14062 -16.46875,7.14062 -12,0 -18.5,-7.90625 -18.5,-21.6875 z m -9.1875,-6.89062 h -33.1875 c 0.25,-5.10938 0.5,-7.03125 1.90625,-10.46875 2.4375,-5.75 8.04687,-9.45313 14.6875,-9.45313 6.64062,0 12.25,3.70313 14.67187,9.45313 1.40625,3.4375 1.65625,5.35937 1.92188,10.46875 z m 0,0"
         id="path2286" />
      <path
         style="fill:#141414;fill-opacity:1;fill-rule:nonzero;stroke:none"
         d="M 466.89062,313.01562 V 272.8125 c 0,-7.28125 -2.04687,-13.15625 -6.51562,-17.48438 -3.82813,-3.82812 -9.3125,-5.875 -16.07813,-5.875 -7.03125,0 -13.15625,2.54688 -17.625,7.65625 v -6.89062 h -9.1875 v 62.79687 h 9.1875 v -38.67187 c 0,-10.98438 6.125,-16.71875 15.57813,-16.71875 9.45312,0 15.4375,5.60937 15.4375,16.71875 v 38.67187 z m 0,0"
         id="path2288" />
      <path
         style="fill:#141414;fill-opacity:1;fill-rule:nonzero;stroke:none"
         d="m 513.34375,313.01562 v -7.90625 H 508.5 c -5.875,0 -8.5625,-3.45312 -8.5625,-9.20312 V 257.625 h 13.40625 v -7.03125 H 499.9375 V 230.9375 H 490.75 v 19.65625 h -7.90625 V 257.625 H 490.75 v 38.54687 c 0,9.3125 5.35937,16.84375 16.09375,16.84375 z m 0,0"
         id="path2290" />
      <path
         style="fill:#141414;fill-opacity:1;fill-rule:nonzero;stroke:none"
         d="m 578.69531,284.04687 v -4.21875 c 0,-18.64062 -9.57812,-30.375 -25.78125,-30.375 -15.95312,0 -25.78125,11.875 -25.78125,32.15625 0,22.21875 10.84375,32.17188 27.4375,32.17188 10.71875,0 16.59375,-3.3125 22.96875,-9.70313 l -6.25,-5.48437 c -4.96875,4.96875 -9.1875,7.14062 -16.46875,7.14062 -12,0 -18.5,-7.90625 -18.5,-21.6875 z m -9.1875,-6.89062 h -33.1875 c 0.25,-5.10938 0.5,-7.03125 1.90625,-10.46875 2.4375,-5.75 8.04688,-9.45313 14.6875,-9.45313 6.64063,0 12.25,3.70313 14.67188,9.45313 1.40625,3.4375 1.65625,5.35937 1.92187,10.46875 z m 0,0"
         id="path2292" />
      <g
         style="clip-rule:nonzero;fill:#141414;fill-opacity:1"
         clip-path="url(#clip1)"
         id="g2296">
        <path
           style="fill:#141414;fill-opacity:1;fill-rule:nonzero;stroke:none"
           d="m 640.09375,255.32812 c -4.46875,-4.46875 -9.0625,-5.875 -15.0625,-5.875 -7.28125,0 -14.17188,3.1875 -17.625,8.42188 v -7.65625 h -9.1875 v 62.79687 h 9.1875 v -38.54687 c 0,-9.57813 5.875,-16.84375 15.0625,-16.84375 4.85937,0 7.40625,1.14062 10.85937,4.59375 z m 0,0"
           id="path2294" />
      </g>
      <path
         style="fill:#141414;fill-opacity:1;fill-rule:nonzero;stroke:none"
         d="m 688.54297,293.73047 c -1.41797,1.63672 -3.00781,2.94922 -4.76563,3.9375 -1.75,0.99219 -3.51172,1.48437 -5.28125,1.48437 -1.9375,0 -3.82422,-0.5625 -5.65625,-1.6875 -1.83593,-1.13281 -3.32422,-2.8789 -4.46875,-5.23437 -1.14843,-2.36328 -1.71875,-4.95313 -1.71875,-7.76563 0,-3.46875 0.88282,-6.9414 2.65625,-10.42187 1.78125,-3.47656 3.98828,-6.08594 6.625,-7.82813 2.64453,-1.75 5.21094,-2.625 7.70313,-2.625 1.89453,0 3.70312,0.5 5.42187,1.5 1.72657,0.99219 3.21094,2.5 4.45313,4.53125 l 1.10937,-5.07812 h 5.85938 l -4.70313,21.95312 c -0.65625,3.05469 -0.98437,4.7461 -0.98437,5.07813 0,0.58594 0.22265,1.08984 0.67187,1.51562 0.44532,0.42969 0.98438,0.64063 1.60938,0.64063 1.15625,0 2.67187,-0.66406 4.54687,-2 2.48828,-1.75 4.45703,-4.08594 5.90625,-7.01563 1.45703,-2.9375 2.1875,-5.96093 2.1875,-9.07812 0,-3.64453 -0.9375,-7.04688 -2.8125,-10.20313 -1.86718,-3.16406 -4.64843,-5.69531 -8.34375,-7.59375 -3.6875,-1.89453 -7.77343,-2.84375 -12.25,-2.84375 -5.09375,0 -9.75781,1.19532 -13.98437,3.57813 -4.21875,2.38672 -7.49219,5.8125 -9.8125,10.28125 -2.32422,4.46094 -3.48438,9.24219 -3.48438,14.34375 0,5.33594 1.16016,9.93359 3.48438,13.79687 2.32031,3.86328 5.67969,6.71875 10.07812,8.5625 4.39453,1.84375 9.26563,2.76563 14.60938,2.76563 5.71875,0 10.5039,-0.96485 14.35937,-2.89063 3.86328,-1.91797 6.75391,-4.25 8.67188,-7 h 5.92187 c -1.11718,2.28907 -3.02734,4.625 -5.73437,7 -2.69922,2.38282 -5.91406,4.26563 -9.64063,5.64063 -3.73047,1.38281 -8.22656,2.07812 -13.48437,2.07812 -4.84375,0 -9.3125,-0.62109 -13.40625,-1.85937 -4.08594,-1.24219 -7.5625,-3.10938 -10.4375,-5.60938 -2.875,-2.5 -5.04688,-5.375 -6.51563,-8.625 -1.83593,-4.11328 -2.75,-8.5625 -2.75,-13.34375 0,-5.32031 1.09375,-10.39453 3.28125,-15.21875 2.65625,-5.90625 6.42969,-10.42578 11.32813,-13.5625 4.89453,-3.14453 10.83203,-4.71875 17.8125,-4.71875 5.41406,0 10.27344,1.10938 14.57812,3.32813 4.3125,2.21094 7.70703,5.50781 10.1875,9.89062 2.11328,3.77344 3.17188,7.8711 3.17188,12.29688 0,6.32422 -2.22656,11.9375 -6.67188,16.84375 -3.96875,4.40625 -8.30859,6.60937 -13.01562,6.60937 -1.51172,0 -2.73047,-0.22656 -3.65625,-0.6875 -0.91797,-0.45703 -1.59375,-1.10937 -2.03125,-1.95312 -0.29297,-0.55078 -0.5,-1.48828 -0.625,-2.8125 z m -15.84375,-8.875 c 0,2.99219 0.70703,5.3125 2.125,6.96875 1.42578,1.65625 3.05469,2.48437 4.89062,2.48437 1.21875,0 2.5,-0.36328 3.84375,-1.09375 1.35157,-0.72656 2.64453,-1.8125 3.875,-3.25 1.23828,-1.4375 2.25,-3.25781 3.03125,-5.46875 0.78907,-2.21875 1.1875,-4.4414 1.1875,-6.67187 0,-2.96875 -0.74218,-5.26953 -2.21875,-6.90625 -1.46875,-1.63281 -3.26172,-2.45313 -5.375,-2.45313 -1.39843,0 -2.71484,0.35547 -3.95312,1.0625 -1.23047,0.71094 -2.42188,1.85157 -3.57813,3.42188 -1.15625,1.57422 -2.08593,3.48437 -2.78125,5.73437 -0.69922,2.24219 -1.04687,4.29688 -1.04687,6.17188 z m 0,0"
         id="path2384" />
      <path
         style="fill:#141414;fill-opacity:1;fill-rule:nonzero;stroke:none"
         d="m 929.88281,264.67969 h -17.77734 l 6.24219,-30.6211 H 767.21094 l -15.8711,79.03125 h 60.25782 l 3.94531,-19.7539 h -35.57422 l 2.15625,-10.86719 h 35.56641 l 3.58203,-17.78906 h -35.57813 l 2.15625,-10.86719 h 56.39063 l -11.90625,59.27734 h 24.69922 l 11.90625,-59.27734 h 20.73437 l -11.90234,59.27734 h 24.70312 l 6.09375,-30.62109 h 17.77735 L 920.25,313.08984 h 24.69922 l 15.8789,-79.03125 h -24.69921 z m 0,0"
         id="path2386" />
    </g>
  </g>
</svg>
